<?xml version="1.0" encoding="UTF-8" standalone="no"?>
<!-- Created with Inkscape (http://www.inkscape.org/) -->

<svg
   width="127.27002mm"
   height="145.34323mm"
   viewBox="0 0 481.02056 549.32876"
   version="1.1"
   id="svg1"
   xml:space="preserve"
   inkscape:version="1.4.2 (f4327f4, 2025-05-13)"
   sodipodi:docname="logo_short.svg"
   inkscape:export-filename="ryxza_yxz_short.png"
   inkscape:export-xdpi="300"
   inkscape:export-ydpi="300"
   xmlns:inkscape="http://www.inkscape.org/namespaces/inkscape"
   xmlns:sodipodi="http://sodipodi.sourceforge.net/DTD/sodipodi-0.dtd"
   xmlns="http://www.w3.org/2000/svg"
   xmlns:svg="http://www.w3.org/2000/svg"><sodipodi:namedview
     id="namedview1"
     pagecolor="#ffffff"
     bordercolor="#000000"
     borderopacity="0.25"
     inkscape:showpageshadow="2"
     inkscape:pageopacity="0.0"
     inkscape:pagecheckerboard="0"
     inkscape:deskcolor="#d1d1d1"
     inkscape:document-units="mm"
     inkscape:zoom="1"
     inkscape:cx="185.5"
     inkscape:cy="239.5"
     inkscape:window-width="1920"
     inkscape:window-height="1017"
     inkscape:window-x="-8"
     inkscape:window-y="-3"
     inkscape:window-maximized="1"
     inkscape:current-layer="layer4"
     showguides="true"
     showgrid="false" /><defs
     id="defs1"><clipPath
       clipPathUnits="userSpaceOnUse"
       id="clipPath1"><rect
         style="fill:#676161;stroke-width:5"
         id="rect2"
         width="793.70081"
         height="1122.5197"
         x="0"
         y="0" /></clipPath><clipPath
       clipPathUnits="userSpaceOnUse"
       id="clipPath36"><rect
         style="fill:#676161;stroke-width:5"
         id="rect37"
         width="629.65289"
         height="719.01276"
         x="0"
         y="0" /></clipPath></defs><g
     inkscape:groupmode="layer"
     id="layer4"
     inkscape:label="LOGO"
     transform="translate(-81.545184,-74.187263)"
     style="display:inline"><g
       id="g50"
       inkscape:label="CONJUNTO LOGO"><g
         id="g57"
         inkscape:label="ROJO"
         style="fill:#ec1c21;fill-opacity:1"><path
           id="path54"
           style="fill:#ec1c21;fill-opacity:1"
           d="m 301.52734,125.60351 c -8.42577,9.26313 -75.26244,4.79469 -77.73832,13.8357 -2.47588,9.04101 -0.24862,114.85874 -0.47066,172.26587 0.99042,6.1192 4.65275,12.67639 11.03619,14.11523 h 24.97162 c 9.4833,12.24853 20.49258,46.75745 29.62849,56.7135 4.28723,4.218 10.34332,1.94027 15.32073,3.38608 4.7987,4.69917 4.161,37.23451 7.81638,46.39002 2.1791,6.83252 3.44297,6.85779 10.05286,10.92041 6.57243,-4.02992 8.82357,-5.05387 10.21074,-11.40684 2.47216,-15.00947 4.02047,-30.16448 7.04892,-45.08328 4.79628,-3.5055 11.83048,0.954 16.40572,-3.62969 3.73756,-1.98735 17.13973,-31.02494 26.93662,-53.15041 3.72429,-8.09621 18.3539,-2.12734 29.8673,-4.62937 5.88816,-3.05042 8.59802,-9.29326 8.74584,-16.0528 -1.26957,-29.42593 1.59131,-168.15924 -2.96277,-172.25525 -4.55408,-4.09601 -50.77428,-9.70702 -72.99454,-9.96799 -4.44858,-2.89983 -0.32322,-26.41095 -2.37089,-46.51933 -3.73508,-8.4338 -36.59705,-8.177384 -40.24806,-0.92954 -0.82258,10.429825 -1.25617,35.65488 -1.25617,45.99769 z m -34.22656,45.32422 c 7.1472,-5.73299 106.13695,-3.94502 110.22461,0 4.08766,3.94502 5.18626,127.97433 1.33008,132.07228 -4.39472,4.67026 -106.10039,4.40796 -111.51138,0 -5.88664,-4.79544 -7.19051,-126.33929 -0.0433,-132.07228 z"
           inkscape:label="EXT"
           sodipodi:nodetypes="czccccccccccccczcccczzzzz" /><path
           style="fill:#ec1c21;fill-opacity:1"
           d="m 467.48533,573.03997 h -68.84529 c -1.62239,-2.0461 -4.85466,-3.40695 -4.07095,-6.47722 -0.0715,-8.07084 -0.0186,-16.14291 -0.0419,-24.21423 2.63716,-4.58422 6.39367,-8.19032 10.26586,-11.71751 20.6077,-21.51407 41.54423,-42.72503 62.04498,-64.33271 1.15742,-1.6306 5.2923,-4.85799 1.49223,-5.50459 -16.06073,-2.02093 -99.03742,6.73062 -97.27958,-0.42118 -5.11716,-9.7768 22.84911,-26.38813 33.91143,-37.53128 2.38681,-1.63264 4.55165,-3.96481 7.70917,-3.16847 h 118.60173 c 2.52037,1.20831 5.19981,2.2553 6.00712,5.20108 0.73415,6.91592 0.44002,14.10391 0.78374,21.12314 -0.52129,3.12386 -0.24412,6.61686 -1.2234,9.52898 -22.30344,23.18098 -44.81695,46.18368 -67.1657,69.30479 -1.34713,2.08808 -4.94818,4.19591 -1.62141,6.24305 h 68.31596 c 2.14606,1.5926 4.56441,3.05303 3.64494,6.13343 0.13898,10.57727 0.27795,21.15453 0.41693,31.7318 -2.12178,1.76504 -3.61343,5.05136 -6.86,4.10092 h -66.08591 z"
           id="path52"
           inkscape:label="Z"
           sodipodi:nodetypes="cccccccccccccccccccccc" /><path
           style="fill:#ec1c21;fill-opacity:1"
           d="m 178.83802,573.01567 c -5.67063,0.008 -11.34127,0.0162 -17.0119,0.0243 -1.64132,-1.95219 -4.64279,-3.33669 -3.75976,-6.34249 -0.10125,-19.44204 -0.24822,-38.8838 -0.37102,-58.3257 -6.5961,-10.10516 -37.09923,-39.35596 -53.1219,-57.48471 0.15902,-9.10514 0.31804,-18.21029 0.47707,-27.31543 2.00816,-1.83501 3.74277,-4.3492 6.80567,-3.56552 6.40994,0.0375 12.94946,-0.48157 19.28,-0.10315 3.38738,1.29188 6.04165,3.56415 8.31187,6.35003 13.02921,13.63032 27.31798,27.41603 40.67497,40.72707 13.1647,-13.49887 29.64291,-30.25514 44.72176,-45.12298 3.19953,-1.83458 7.02561,-1.61576 10.51051,-1.22198 5.48089,2.27353 9.61063,7.45999 13.2641,11.22447 2.41737,2.44122 11.31781,10.39402 8.45709,14.20223 -1.68758,3.64225 -3.5093,7.18756 -6.72845,9.72292 -14.85937,15.21442 -30.11081,30.05573 -44.71003,45.51771 -3.01619,3.03439 -6.2089,6.8405 -5.52974,11.39852 -0.0314,18.38638 -0.0628,36.77276 -0.0943,55.15914 -1.13745,2.78249 -3.33925,5.91693 -6.76079,5.13503 -4.80506,0.007 -9.61011,0.0137 -14.41517,0.0205 z"
           id="path51"
           inkscape:label="Y"
           sodipodi:nodetypes="sccccccccccccccccccss" /></g><g
         id="g56"
         inkscape:label="GRIS"
         style="fill:#676161;fill-opacity:1"><path
           style="fill:#676161;fill-opacity:1"
           d="m 463.40134,403.64931 c -10.70428,0.16148 -21.58803,0.86333 -32.15315,-0.6515 -2.37765,-0.79548 -1.84293,-4.62284 -0.91784,-6.27818 26.63974,-27.6364 53.7301,-54.83499 80.38053,-82.46204 2.92728,-3.26117 6.52092,-6.1918 9.04043,-9.65522 1.80491,-8.70968 0.30252,-17.61505 0.36012,-26.42812 -0.27054,-2.78273 0.66928,-6.02338 -1.95697,-7.91489 -25.48182,-0.36817 -51.16328,-0.31423 -76.72181,-0.5202 -3.4536,-2.53257 -4.52629,-6.9265 -4.08578,-11.01808 0.002,-8.78998 0.003,-17.57996 0.005,-26.36994 1.61874,-2.08726 2.20157,-5.67927 5.48981,-5.34142 7.11389,-1.00935 14.39512,-0.14563 21.57815,-0.3811 29.02221,0.12713 58.04443,0.25425 87.06665,0.38137 4.70183,2.49728 8.34992,6.58479 10.24751,11.56521 1.5941,3.44293 0.33735,7.54693 0.70737,11.27371 -0.11377,23.43943 -0.22753,46.87887 -0.34129,70.3183 -5.19819,8.55601 -13.2241,14.82895 -19.85252,22.21415 -19.18899,19.73513 -38.04731,39.82183 -57.80131,58.98626 -2.09943,2.95573 -5.79993,1.68478 -8.88632,2.03504 -4.05291,0.0822 -8.10581,0.16443 -12.15872,0.24665 z"
           id="path56"
           inkscape:label="X2" /><path
           style="fill:#676161;fill-opacity:1"
           d="m 191.03608,429.56332 c -3.21459,0 -5.28825,-1.63831 -7.32503,-3.87956 -31.6354,-32.80141 -63.86692,-65.02981 -95.321861,-98.00164 -3.071105,-2.83945 -4.889124,-6.4255 -6.075608,-10.38782 -1.323963,-25.73283 -0.535281,-51.77646 -0.535281,-77.6044 1.246932,-4.64312 1.060843,-5.51295 3.380574,-7.79876 2.319731,-2.28581 5.966038,-3.42506 8.821708,-4.88318 35.233578,-0.0636 70.508848,-0.45975 105.716438,-0.31596 2.79899,0.45959 5.06424,1.31083 6.59894,4.05401 1.46613,3.38058 1.06862,6.48113 0.99927,9.64201 -0.0306,8.17845 0.31124,16.5131 -0.23061,24.5946 -0.88012,3.21122 -3.42907,4.46992 -6.48279,5.13805 h -73.1226 c -3.7158,0.68166 -3.01331,4.00667 -2.94583,6.95177 0.0102,9.25523 0.0204,18.51045 0.0307,27.76567 29.6459,30.53874 59.65201,60.73076 89.17362,91.38746 2.73961,2.45587 4.77204,6.22891 2.77857,9.77833 -1.14506,4.22896 -5.605,6.47397 -8.23284,9.81548 -4.54935,4.59088 -8.81744,8.21301 -13.64803,12.27264 -1.47435,0.8025 -2.38621,1.4809 -3.57931,1.4713 z"
           id="path55"
           inkscape:label="X1"
           sodipodi:nodetypes="scccczcccccccccccccss" /><path
           style="fill:#676161;fill-opacity:1"
           d="m 254.66487,623.39931 c -4.45766,-0.19033 -9.15389,0.37582 -13.46667,-0.27388 -2.8216,-1.35872 -4.47485,-4.11294 -5.28969,-6.99491 0.15676,-6.3779 -0.30635,-12.91124 0.22526,-19.19514 2.83121,-5.32657 8.02148,-8.93749 11.90602,-13.4925 14.52257,-15.02903 29.12882,-29.97754 43.53308,-45.12039 0.84373,-3.71106 -3.38442,-5.43966 -5.22235,-8.10253 -13.55556,-14.43153 -27.56266,-28.42822 -41.28572,-42.69907 -0.54557,-3.10969 0.36749,-5.62521 3.00221,-7.43941 7.01098,-7.17756 14.02196,-14.35512 21.03294,-21.53268 2.88564,-0.47739 6.02433,-1.72723 7.68876,1.52323 14.82656,15.01968 29.65311,30.03936 44.47966,45.05905 3.31676,0.35149 4.83196,-3.67425 7.30341,-5.3766 7.68749,-7.61839 15.37496,-15.23678 23.06244,-22.85517 17.50183,-0.0791 35.00439,0.0406 52.50651,0.0406 3.00783,1.49492 1.80118,4.39076 -0.226,6.22867 -16.49569,16.93535 -33.26243,33.66769 -49.5894,50.72938 -2.31657,2.40744 -1.80559,5.08951 0.87945,6.89553 12.08841,14.08986 26.00649,26.45781 38.18794,40.45851 4.44899,4.88769 9.46815,9.46086 13.56142,14.54478 1.55795,5.91641 0.14108,12.16211 0.37222,18.22538 0.37355,3.15201 -0.30475,5.86556 -3.02149,7.72939 -2.00842,3.04472 -6.1437,1.103 -9.21842,1.64776 -6.78015,0 -13.5603,0 -20.34045,0 -17.66507,-17.78443 -34.46229,-36.40906 -52.1501,-54.17448 -3.05531,-0.27328 -4.37542,3.54849 -6.63854,5.14478 -13.92629,14.5102 -28.1847,28.73434 -41.83581,43.48355 -2.33123,1.72801 -4.32981,4.34579 -6.8583,5.54615 -4.19946,0 -8.39892,0 -12.59838,0 z"
           id="path50"
           inkscape:label="X" /></g></g></g></svg>
